<?xml version="1.0" encoding="utf-8"?>
<!-- Generator: Adobe Illustrator 24.3.0, SVG Export Plug-In . SVG Version: 6.00 Build 0)  -->
<svg version="1.1" id="Layer_1" xmlns="http://www.w3.org/2000/svg" xmlns:xlink="http://www.w3.org/1999/xlink" x="0px" y="0px"
	 viewBox="0 0 542.6 522" style="enable-background:new 0 0 542.6 522;" xml:space="preserve">
<style type="text/css">
	.st0{fill:#29ABE2;}
	.st1{fill:#FFD91F;}
	.st2{fill:#F2F2F2;}
	.st3{fill:#66BAD8;}
</style>
<path class="st0" d="M76.6,17.2C76.6,17.2,76.6,17.2,76.6,17.2L76.6,17.2L76.6,17.2z"/>
<g>
	<circle class="st1" cx="403.5" cy="132.2" r="132.2"/>
	<path class="st2" d="M542.6,233.7c0,31.3-12.3,59.6-32.3,80.6c-21.3,22.3-51.3,36.2-84.5,36.2H61.5c-13.8,0-26.6-4.6-36.9-12.3
		C9.7,327,0,309.1,0,289c0-22.8,12.4-42.7,30.9-53.3c-6.1-17.5-9.3-36.3-9.3-55.8C21.5,85.6,97.9,9.2,192.2,9.2
		c80,0,147.2,55.1,165.6,129.5c19.2-13.8,42.7-21.9,68-21.9C490.3,116.8,542.6,169.1,542.6,233.7z"/>
	<path class="st3" d="M157.5,409.7c0,11.9-4.6,21.5-10.2,21.3c-4.7-0.2-8.8-7.8-9.6-17.8c-0.3-3.4-0.1-6.7,0.3-9.7c0,0,0,0,0,0
		l1.4-6.1l7.4-31.9c0.2-0.7,1.2-0.7,1.4,0l7.4,32l1.4,6.1l0,0C157.4,405.5,157.5,407.6,157.5,409.7z"/>
	<path class="st3" d="M291.2,442.8c0,11.9-4.6,21.5-10.2,21.3c-4.7-0.2-8.8-7.8-9.6-17.8c-0.3-3.4-0.1-6.7,0.3-9.7c0,0,0,0,0,0
		l1.4-6.1l7.4-31.9c0.2-0.7,1.2-0.7,1.4,0l7.4,32l1.4,6.1l0,0C291.1,438.5,291.2,440.6,291.2,442.8z"/>
	<path class="st3" d="M192.8,506.8c0,8.5-3.3,15.4-7.3,15.2c-3.4-0.2-6.3-5.6-6.9-12.8c-0.2-2.4-0.1-4.8,0.2-6.9c0,0,0,0,0,0l1-4.4
		l5.3-22.8c0.1-0.5,0.9-0.5,1,0l5.3,22.9l1,4.4l0,0C192.7,503.7,192.8,505.2,192.8,506.8z"/>
	<path class="st3" d="M349.1,496.1c0,8.5-3.3,15.4-7.3,15.2c-3.4-0.2-6.3-5.6-6.9-12.8c-0.2-2.4-0.1-4.8,0.2-6.9c0,0,0,0,0,0l1-4.4
		l5.3-22.8c0.1-0.5,0.9-0.5,1,0l5.3,22.9l1,4.4l0,0C349,493.1,349.1,494.6,349.1,496.1z"/>
	<path class="st3" d="M403.5,424.8c0,11.9-4.6,21.5-10.2,21.3c-4.7-0.2-8.8-7.8-9.6-17.8c-0.3-3.4-0.1-6.7,0.3-9.7c0,0,0,0,0,0
		l1.4-6.1l7.4-31.9c0.2-0.7,1.2-0.7,1.4,0l7.4,32l1.4,6.1l0,0C403.4,420.6,403.5,422.6,403.5,424.8z"/>
</g>
</svg>
