<?xml version="1.0" encoding="utf-8"?>
<!-- Generator: Adobe Illustrator 24.3.0, SVG Export Plug-In . SVG Version: 6.00 Build 0)  -->
<svg version="1.1" id="Layer_1" xmlns="http://www.w3.org/2000/svg" xmlns:xlink="http://www.w3.org/1999/xlink" x="0px" y="0px"
	 viewBox="0 0 399.1 325.5" style="enable-background:new 0 0 399.1 325.5;" xml:space="preserve">
<path d="M190.2,3.1L1.8,144.8c-3.5,2.6-1.6,8.2,2.7,8.2h43.3c3.1,0,5.6,2.5,5.6,5.6v162.3c0,2.5,2,4.5,4.5,4.5h283.1
	c2.5,0,4.5-2,4.5-4.5V158.6c0-3.1,2.5-5.6,5.6-5.6h43.3c4.4,0,6.2-5.6,2.7-8.2L208.9,3.1C203.4-1,195.7-1,190.2,3.1z M306.2,267.7
	c-40.3,9.5-62.9,12.6-92.5,12.6c-36,0-62.9-5.7-84.5-17.7c-24.1-13.6-36.5-37.8-36.5-72.2c0-30.3,10.8-53.2,31.6-67.8
	c20.6-14.6,46.2-20.8,84.5-20.8c33.4,0,63.2,3.3,94.5,10.5v59.6c-23.9-4.6-48.6-7.2-70.6-7.2c-19.8,0-32.4,2.6-41.6,8.7
	c-8.5,5.7-13.6,16.2-13.6,27.7c0,21.1,14.9,34.2,38.5,34.2c2.3,0,6.7-0.3,10.5-0.5v-44.4h79.6v77.3H306.2z"/>
</svg>
