<?xml version="1.0" encoding="utf-8"?>
<!-- Generator: Adobe Illustrator 24.2.1, SVG Export Plug-In . SVG Version: 6.00 Build 0)  -->
<svg version="1.1" id="Layer_1" xmlns="http://www.w3.org/2000/svg" xmlns:xlink="http://www.w3.org/1999/xlink" x="0px" y="0px"
	 viewBox="0 0 483.83 38.01" style="enable-background:new 0 0 483.83 38.01;" xml:space="preserve">
<g>
	<path d="M44.8,35.1c-8.46,1.99-13.21,2.64-19.41,2.64c-7.55,0-13.21-1.19-17.74-3.72C2.59,31.16,0,26.09,0,18.87
		C0,12.51,2.26,7.71,6.63,4.64c4.31-3.07,9.7-4.37,17.74-4.37c7.01,0,13.26,0.7,19.84,2.21v12.51c-5.01-0.97-10.19-1.51-14.83-1.51
		c-4.15,0-6.79,0.54-8.73,1.83c-1.78,1.19-2.86,3.4-2.86,5.82c0,4.42,3.13,7.17,8.09,7.17c0.48,0,1.4-0.05,2.21-0.11v-9.33H44.8
		V35.1z"/>
	<path d="M78.39,36.98l-8.84-11.38v11.38H51.06V1.02h34.66c4.37,0,6.95,0.65,9.11,2.37c2.43,1.83,3.88,4.85,3.88,8.09
		c0,3.18-1.4,5.98-3.94,7.98c-2.05,1.56-3.83,2.21-7.33,2.59l12.4,14.93H78.39z M75.21,18.06c1.89,0,2.64-0.16,3.5-0.65
		c1.08-0.65,1.67-1.89,1.67-3.4c0-2.43-1.13-3.4-4.1-3.4h-6.74v7.44H75.21z"/>
	<path d="M135.59,36.98l-1.29-4.64h-12.02l-1.29,4.64h-18.87L113.6,1.02h29.27l11.32,35.96H135.59z M128.42,11.16l-3.88,11.38h7.6
		L128.42,11.16z"/>
	<path d="M157.22,36.98V1.02h18.49v35.96H157.22z"/>
	<path d="M182.88,36.98V1.02h18.49v23.23h15.74v12.72H182.88z"/>
	<path d="M265.74,36.98V25.82h-9.27v11.16h-18.49V1.02h18.49v12.72h9.27V1.02h18.49v35.96H265.74z"/>
	<path d="M339.55,19.25c0,6.15-2.26,11.43-6.15,14.23c-4.21,3.02-10.4,4.53-18.71,4.53c-8.25,0-14.45-1.51-18.65-4.53
		c-3.94-2.86-6.15-8.03-6.15-14.45c0-6.9,2.37-12.02,6.85-14.88C301.01,1.4,307.1,0,314.59,0C331.57,0,339.55,6.15,339.55,19.25z
		 M308.55,19.14c0,5.66,2.05,8.46,6.15,8.46c4.1,0,6.2-2.86,6.2-8.41c0-4.64-2.1-7.01-6.2-7.01
		C310.71,12.18,308.55,14.61,308.55,19.14z"/>
	<path d="M363.44,1.02v22.1c0,1.73,0.16,2.59,0.54,3.13c0.54,0.75,1.78,1.24,3.18,1.24c1.35,0,2.59-0.48,3.13-1.24
		c0.38-0.54,0.54-1.4,0.54-3.13V1.02h18.49v21.73c0,6.09-0.92,8.63-4.04,11c-3.4,2.59-9.7,3.99-18.11,3.99
		c-9,0-15.53-1.56-18.81-4.53c-2.7-2.37-3.4-4.74-3.4-10.94V1.02H363.44z"/>
	<path d="M395.84,26.04c8.09,1.24,13.69,1.73,20.11,1.73c1.62,0,2.48-0.54,2.48-1.62c0-0.92-0.59-1.24-2.53-1.24h-3.02
		c-1.46,0-4.69-0.22-6.79-0.43c-4.53-0.49-7.28-1.73-9.11-4.1c-1.4-1.78-2.1-4.15-2.1-6.9c0-4.1,1.46-7.39,4.26-9.49
		c3.18-2.37,9.54-3.72,17.9-3.72c6.36,0,12.88,0.59,18.98,1.78v10.57c-2.75-0.48-10.14-1.13-14.5-1.24h-4.04
		c-2.48,0-3.45,0.49-3.45,1.62c0,0.92,0.75,1.46,1.99,1.46l6.47,0.05c3.72,0.05,7.17,0.54,9.27,1.35c3.4,1.29,5.66,4.85,5.66,8.95
		c0,3.94-2.1,7.6-5.61,9.81c-3.77,2.37-7.76,3.13-16.01,3.13c-7.28,0-12.24-0.43-19.95-1.83V26.04z"/>
	<path d="M442.59,36.98V1.02h41.24v11.54h-22.75v3.34h22.75v8.63h-22.75v3.02h22.75v9.43H442.59z"/>
</g>
</svg>
