<?xml version="1.0" encoding="utf-8"?>
<!-- Generator: Adobe Illustrator 24.3.0, SVG Export Plug-In . SVG Version: 6.00 Build 0)  -->
<svg version="1.1" id="Layer_1" xmlns="http://www.w3.org/2000/svg" xmlns:xlink="http://www.w3.org/1999/xlink" x="0px" y="0px"
	 viewBox="0 0 514 503.7" style="enable-background:new 0 0 514 503.7;" xml:space="preserve">
<style type="text/css">
	.st0{fill:#F8F8F8;}
	.st1{fill:#69BFA9;}
</style>
<g>
	<ellipse class="st0" cx="257" cy="251.8" rx="257" ry="251.8"/>
	<path class="st1" d="M490.4,251.2c0,125.1-104.2,226.8-232.3,226.8C130,478,25.8,376.3,25.8,251.2c0-9.1,0.5-18,1.6-26.8
		c19.3,4.2,30.9,16.9,43.1,30.3c15.8,17.3,32.2,35.2,65.2,35.2c33,0,49.3-17.9,65.2-35.2c14.9-16.3,29-31.7,57.2-31.7
		c28.2,0,42.3,15.4,57.2,31.7c15.8,17.3,32.2,35.2,65.2,35.2c33,0,49.3-17.9,65.2-35.2c12.2-13.4,23.8-26.1,43.1-30.3
		C489.8,233.2,490.4,242.1,490.4,251.2z"/>
</g>
</svg>
